<svg width="60" height="65" viewBox="0 0 60 65" fill="none" xmlns="http://www.w3.org/2000/svg">
<path d="M29.8131 29.9032C28.366 29.9032 27.1873 31.0573 27.1873 32.4858V62.4174C27.1873 63.8364 28.366 65 29.8131 65C31.2601 65 32.4388 63.8459 32.4388 62.4174V32.4763C32.4388 31.0573 31.2601 29.9032 29.8131 29.9032Z" fill="#2899D0"/>
<path d="M20.8816 50.9897C19.4346 50.9897 18.2558 52.1343 18.2558 53.525V58.6145C18.2558 60.0146 19.4346 61.1498 20.8816 61.1498C22.3287 61.1498 23.5074 60.0146 23.5074 58.6145V53.525C23.5074 52.1249 22.3287 50.9897 20.8816 50.9897Z" fill="#2899D0"/>
<path d="M48.0593 46.7705C46.6123 46.7705 45.4336 47.9152 45.4336 49.3247V53.2317C45.4336 53.9128 45.7019 54.5561 46.2002 55.0386C46.6985 55.521 47.3598 55.7859 48.0593 55.7859C49.5064 55.7859 50.6851 54.6413 50.6851 53.2317V49.3247C50.6947 47.9152 49.516 46.7705 48.0593 46.7705Z" fill="#2899D0"/>
<path d="M39.1279 38.3321C37.6808 38.3321 36.5021 39.4862 36.5021 40.9147V58.5766C36.5021 59.9956 37.6808 61.1592 39.1279 61.1592C39.8274 61.1592 40.4887 60.8943 40.987 60.4024C41.4853 59.9105 41.7536 59.2672 41.7536 58.5766V40.9147C41.7536 40.2241 41.4853 39.5809 40.987 39.0889C40.4983 38.6065 39.837 38.3321 39.1279 38.3321Z" fill="#2899D0"/>
<path d="M36.5979 32.5993C36.5979 34.0183 37.7575 35.1725 39.1758 35.1725C40.5941 35.1725 41.7536 34.0183 41.7536 32.6088V28.2666C41.7536 26.7625 40.6516 24.861 39.3387 24.1137L32.4005 20.131C31.7489 19.7526 30.8672 19.5728 29.9952 19.5728C29.1135 19.5728 28.2415 19.762 27.5898 20.131L20.6516 24.1137C19.3483 24.861 18.2367 26.7719 18.2367 28.2666V45.1812C18.2367 46.6002 19.3962 47.7543 20.8145 47.7543C22.2328 47.7543 23.3924 46.6002 23.3924 45.1812V30.2532C23.3924 29.2505 24.0824 28.068 24.9544 27.5571L28.4235 25.5611C29.3052 25.0502 30.6756 25.0502 31.5572 25.5611L35.0263 27.5477C35.8984 28.0491 36.5883 29.2316 36.5883 30.2438V32.5993H36.5979Z" fill="#2899D0"/>
<path d="M24.4657 6.90584C27.5035 5.16519 32.458 5.16519 35.4959 6.90584L37.3071 7.94644C37.6521 8.11672 38.0258 8.20186 38.4091 8.20186C39.8274 8.20186 40.9774 7.0572 40.9774 5.64765C40.9774 4.73949 40.4791 3.88808 39.6933 3.434L39.5974 3.37724L36.3296 1.50415C34.6525 0.529763 32.3909 0 29.976 0C27.561 0 25.309 0.529763 23.6224 1.49469L6.35361 11.3994C4.66698 12.3643 3.07618 14.0387 1.86871 16.1199C0.661235 18.1917 0 20.3959 0 22.3257V25.8543C0.0383325 27.1693 1.16914 28.191 2.56828 28.191C3.96741 28.191 5.09822 27.1693 5.13655 25.8543C5.13655 25.7786 5.13655 24.8894 5.13655 24.3123C5.13655 20.831 7.60899 16.574 10.6468 14.8334L24.4657 6.90584Z" fill="#2899D0"/>
<path d="M58.1312 16.1767C56.9141 14.0955 55.3233 12.4116 53.6271 11.4467L46.8231 7.54912C46.4685 7.37884 46.0852 7.28424 45.6923 7.28424C44.2644 7.28424 43.1049 8.43836 43.1049 9.85737C43.1049 10.7561 43.5649 11.5791 44.3411 12.0521L49.3051 14.8996C52.3622 16.6497 54.8442 20.9162 54.8442 24.4164V37.5186C54.8442 38.9281 56.0037 40.0822 57.422 40.0822C58.112 40.0822 58.7541 39.8174 59.2428 39.3349C59.7316 38.8524 59.9999 38.2091 59.9999 37.5186V22.4203C60.0095 20.481 59.3387 18.2674 58.1312 16.1767Z" fill="#2899D0"/>
<path d="M2.62577 31.8141C1.17872 31.8141 0 32.9683 0 34.3778V43.2703C0 44.6798 1.17872 45.8245 2.62577 45.8245C4.07282 45.8245 5.25155 44.6798 5.25155 43.2703V34.3778C5.25155 32.9683 4.07282 31.8141 2.62577 31.8141Z" fill="#2899D0"/>
<path d="M45.6827 17.3497L34.9784 11.1534C33.6559 10.3871 31.883 9.9709 29.976 9.9709C28.069 9.9709 26.2961 10.3966 24.9736 11.1534L22.5299 12.563C21.8016 13.036 21.3608 13.8401 21.3608 14.7198C21.3608 16.1388 22.5107 17.2835 23.9195 17.2835C24.322 17.2835 24.7149 17.1889 25.079 17.0092L27.1202 15.8267C27.906 15.3726 28.9506 15.1455 29.9856 15.1455C31.0205 15.1455 32.0651 15.3726 32.8509 15.8267L42.7503 21.55C44.3315 22.4582 45.6061 24.6907 45.6061 26.5071V40.9526C45.6061 42.3621 46.7464 43.5162 48.1552 43.5162C49.1135 43.5162 49.9855 42.977 50.4264 42.1161C50.6084 41.7567 50.7043 41.3499 50.7043 40.9526V26.0435C50.7043 24.511 50.1772 22.7514 49.2285 21.0959C48.2606 19.4499 47.0052 18.116 45.6827 17.3497Z" fill="#2899D0"/>
<path d="M19.2333 19.0715C19.2333 17.643 18.0929 16.4889 16.6938 16.4889C16.2913 16.4889 15.8984 16.5835 15.5342 16.7727L14.298 17.4916C12.9851 18.2579 11.7393 19.6012 10.7906 21.2662C9.84186 22.9312 9.32438 24.6907 9.32438 26.2327V53.5912C9.32438 54.2818 9.5927 54.9345 10.0719 55.417C10.551 55.8994 11.1835 56.1643 11.8543 56.1643C13.2535 56.1643 14.3843 55.0102 14.3843 53.5912V26.7057C14.3843 24.8799 15.6588 22.6379 17.2304 21.7203C17.6138 21.5027 18.0546 21.2473 18.1217 21.2C18.8117 20.727 19.2333 19.9323 19.2333 19.0715Z" fill="#2899D0"/>
</svg>
